<svg xmlns="http://www.w3.org/2000/svg" version="1.1" xmlns:xlink="http://www.w3.org/1999/xlink" xmlns:svgjs="http://svgjs.dev/svgjs" width="1000" height="995" viewBox="0 0 1000 995"><g transform="matrix(1,0,0,1,-0.11060602377420992,0.40283400809715886)"><svg viewBox="0 0 248 247" data-background-color="#ffffff" preserveAspectRatio="xMidYMid meet" height="995" width="1000" xmlns="http://www.w3.org/2000/svg" xmlns:xlink="http://www.w3.org/1999/xlink"><g id="tight-bounds" transform="matrix(1,0,0,1,0.027430293896003377,-0.09999999999999432)"><svg viewBox="0 0 247.945139412208 247.2" height="247.2" width="247.945139412208"><g><svg viewBox="0 0 247.945139412208 247.2" height="247.2" width="247.945139412208"><g><svg viewBox="0 0 247.945139412208 247.2" height="247.2" width="247.945139412208"><g id="textblocktransform"><svg viewBox="0 0 247.945139412208 247.2" height="247.2" width="247.945139412208" id="textblock"><g><svg viewBox="0 0 247.945139412208 247.2" height="247.2" width="247.945139412208"><g transform="matrix(1,0,0,1,0,0)"><svg width="247.945139412208" viewBox="0.34 -31.96 32.5 32.400000000000006" height="247.2" data-palette-color="#915eff"><g class="wordmark-text-0" data-fill-palette-color="primary" id="text-0"><path d="M15.94-16.04Q16.14-15.84 16.55-15.84 16.97-15.84 17.26-16.02L17.26-16.02Q16.63-19.73 16.41-20.41L16.41-20.41Q16.14-21.12 15.6-21.12L15.6-21.12Q15.36-21.12 15.01-20.97L15.01-20.97 15.94-16.04ZM11.11-8.72L11.11-8.72Q10.86-8.37 10.86-8.08L10.86-8.08Q10.86-7.37 12.19-6.9 13.53-6.42 15.43-6.3L15.43-6.3Q15.75-2.78 16.11-2.29L16.11-2.29Q15.65-1.39 13.55-0.48 11.45 0.44 8.81 0.44L8.81 0.44Q5.32 0.44 2.83-1.06 0.34-2.56 0.34-4.93L0.34-4.93Q0.34-5.57 0.46-6.05L0.46-6.05 5.66-29.3Q7.62-30.54 10.33-31.25 13.04-31.96 15.97-31.96L15.97-31.96Q20.17-31.96 23.14-30.54L23.14-30.54Q26.54-28.93 27.27-25.88L27.27-25.88 32.84-2.86Q30.3 0.44 24.56 0.44L24.56 0.44Q21.78 0.44 19.85-0.56 17.92-1.56 17.6-3.42L17.6-3.42 17.07-6.4Q18.53-6.42 19.9-6.96 21.26-7.5 21.26-8.08L21.26-8.08Q21.26-8.47 20.95-8.72L20.95-8.72Q20.02-8.06 18.68-7.71 17.33-7.37 16.19-7.37L16.19-7.37Q12.89-7.37 11.11-8.72Z" fill="#915eff" data-fill-palette-color="primary"></path></g></svg></g></svg></g></svg></g></svg></g></svg></g><defs></defs></svg><rect width="247.945139412208" height="247.2" fill="none" stroke="none" visibility="hidden"></rect></g></svg></g></svg>